<svg xmlns="http://www.w3.org/2000/svg" width="1em" height="1em" viewBox="0 0 48 48"><defs><path id="SVGmBpWHckD" fill="#fff" d="M22.187 4.024c-1.698 1.239-4.065 3.78-4.687 8.546c.168 2.085.35 4.142.535 6.12L4.53 26.287A3 3 0 0 0 3 28.902v1.813a1.5 1.5 0 0 0 1.864 1.455l14.2-3.55c.53 4.718.936 7.81.936 7.81l-4.766 4.56A4 4 0 0 0 14 43.88v.666a1 1 0 0 0 1.357.934L24 42.172l8.642 3.308A1 1 0 0 0 34 44.546v-.666a4 4 0 0 0-1.234-2.89L28 36.43s.406-3.092.936-7.81l14.2 3.55A1.5 1.5 0 0 0 45 30.715v-1.813a3 3 0 0 0-1.53-2.615L29.966 18.69c.186-1.979.367-4.035.535-6.12c-.623-4.766-2.99-7.307-4.687-8.546a3.05 3.05 0 0 0-3.626 0Z"/></defs><g fill="none" stroke-width="3"><use href="#SVGmBpWHckD"/><use href="#SVGmBpWHckD"/><path fill="#8fbffa" d="M17.968 17.969c-.163-1.755-.32-3.566-.468-5.399c.623-4.766 2.99-7.307 4.687-8.546a3.05 3.05 0 0 1 3.626 0c1.698 1.239 4.064 3.78 4.687 8.546c-.168 2.085-.35 4.142-.535 6.12l13.506 7.597A3 3 0 0 1 45 28.902v1.813a1.5 1.5 0 0 1-1.864 1.455l-14.2-3.55q-.015.143-.032.285z"/><path stroke="#2859c5" stroke-linecap="round" stroke-linejoin="round" d="m28.936 28.62l14.2 3.55A1.5 1.5 0 0 0 45 30.715v-1.813a3 3 0 0 0-1.53-2.615L29.966 18.69c.186-1.979.367-4.035.535-6.12c-.623-4.766-2.99-7.307-4.687-8.546a3.05 3.05 0 0 0-3.626 0c-1.698 1.239-4.065 3.78-4.687 8.546c.148 1.844.307 3.665.47 5.43M14 20.96l-9.47 5.327A3 3 0 0 0 3 28.902v1.813a1.5 1.5 0 0 0 1.864 1.455l14.2-3.55c.53 4.718.936 7.81.936 7.81l-4.766 4.56A4 4 0 0 0 14 43.88v.666a1 1 0 0 0 1.357.934L24 42.172l8.642 3.308A1 1 0 0 0 34 44.546v-.666a4 4 0 0 0-1.234-2.89L28 36.43s.067-.51.182-1.43M6 6l38 38"/></g></svg>