<svg xmlns="http://www.w3.org/2000/svg" width="1em" height="1em" viewBox="0 0 48 48"><g fill="none" stroke-width="3"><path fill="#8fbffa" d="M3.586 14.236c.21-2.133 1.67-3.848 3.785-4.196C10.353 9.548 15.57 9 24 9s13.647.548 16.63 1.04c2.114.348 3.575 2.063 3.784 4.196C44.69 17.033 45 21.426 45 27s-.31 9.967-.586 12.764c-.21 2.133-1.67 3.848-3.785 4.196C37.647 44.452 32.43 45 24 45s-13.646-.548-16.63-1.04c-2.114-.348-3.575-2.063-3.784-4.196C3.31 36.967 3 32.574 3 27s.31-9.967.586-12.764"/><path fill="#fff" d="M44.986 24.971C39.6 26.67 28.47 30 24 30S8.4 26.67 3.014 24.971c.063-4.615.33-8.286.572-10.735c.21-2.133 1.67-3.848 3.785-4.196C10.353 9.548 15.57 9 24 9s13.646.548 16.63 1.04c2.114.348 3.575 2.063 3.784 4.196c.24 2.449.509 6.12.572 10.735"/><path stroke="#2859c5" stroke-linecap="round" stroke-linejoin="round" d="M3.586 14.236c.21-2.133 1.67-3.848 3.785-4.196C10.353 9.548 15.57 9 24 9s13.647.548 16.63 1.04c2.114.348 3.575 2.063 3.784 4.196C44.69 17.033 45 21.426 45 27s-.31 9.967-.586 12.764c-.21 2.133-1.67 3.848-3.785 4.196C37.647 44.452 32.43 45 24 45s-13.646-.548-16.63-1.04c-2.114-.348-3.575-2.063-3.784-4.196C3.31 36.967 3 32.574 3 27s.31-9.967.586-12.764"/><path stroke="#2859c5" stroke-linecap="round" stroke-linejoin="round" d="M44.986 24.972C39.6 26.67 28.47 30 24 30S8.4 26.67 3.014 24.972M16.738 9.2c.457-1.408 1.238-3.052 1.824-4.204c.478-.938 1.34-1.615 2.384-1.755A23 23 0 0 1 24 3.045c1.245 0 2.278.091 3.053.196c1.044.14 1.906.817 2.384 1.755c.586 1.152 1.367 2.796 1.824 4.203"/></g></svg>