<svg xmlns="http://www.w3.org/2000/svg" width="1em" height="1em" viewBox="0 0 48 48"><g fill="none" stroke-width="3"><path fill="#8fbffa" d="M38.167 38.724a3.707 3.707 0 0 0 3.557-3.557c.102-2.228.214-5.59.258-10.167h.52c1.32 0 2.39-.886 2.45-2.204A51 51 0 0 0 45 20.455c0-1.142-.027-2.105-.065-2.888c-.071-1.48-1.307-2.567-2.79-2.567h-.223a146 146 0 0 0-.336-6.885c-.192-2.557-2.144-4.509-4.701-4.7C34.096 3.204 29.868 3 24 3s-10.096.205-12.885.414c-2.557.192-4.509 2.144-4.7 4.701c-.13 1.727-.258 4.006-.337 6.885h-.224c-1.482 0-2.718 1.087-2.789 2.567A60 60 0 0 0 3 20.455c0 .959.02 1.728.048 2.341c.06 1.318 1.13 2.204 2.45 2.204h.52c.044 4.576.156 7.939.258 10.167a3.707 3.707 0 0 0 3.557 3.557c2.833.13 7.501.276 14.167.276s11.334-.146 14.167-.276"/><path fill="#fff" d="M29.009 38.971a55 55 0 0 0 .079 4.219a1.79 1.79 0 0 0 1.656 1.691c.762.062 1.737.12 2.756.12c1.02 0 1.994-.058 2.756-.12a1.79 1.79 0 0 0 1.655-1.691c.047-.788.089-1.864.089-3.19q0-.678-.013-1.268c-2.056.093-5.03.191-8.978.24Zm-18.996-.239A62 62 0 0 0 10 40c0 1.326.042 2.402.088 3.19a1.79 1.79 0 0 0 1.656 1.691c.762.062 1.737.12 2.756.12c1.02 0 1.994-.058 2.756-.12a1.79 1.79 0 0 0 1.655-1.691c.047-.788.089-1.864.089-3.19q0-.543-.009-1.029a277 277 0 0 1-8.978-.239M36.964 27q.035-2.203.036-5c0-6.186-.272-10.03-.455-11.918a1.77 1.77 0 0 0-1.577-1.603C33.181 8.282 29.638 8 24 8c-5.639 0-9.181.282-10.968.48a1.77 1.77 0 0 0-1.577 1.602C11.272 11.971 11 15.814 11 22q.002 2.797.036 5z"/><path stroke="#2859c5" stroke-linecap="round" stroke-linejoin="round" d="M38.167 38.724a3.707 3.707 0 0 0 3.557-3.557c.102-2.228.214-5.59.258-10.167h.52c1.32 0 2.39-.886 2.45-2.204A51 51 0 0 0 45 20.455c0-1.142-.027-2.105-.065-2.888c-.071-1.48-1.307-2.567-2.79-2.567h-.223a146 146 0 0 0-.336-6.885c-.192-2.557-2.144-4.509-4.701-4.7C34.096 3.204 29.868 3 24 3s-10.096.205-12.885.414c-2.557.192-4.509 2.144-4.7 4.701c-.13 1.727-.258 4.006-.337 6.885h-.224c-1.482 0-2.718 1.087-2.789 2.567A60 60 0 0 0 3 20.455c0 .959.02 1.728.048 2.341c.06 1.318 1.13 2.204 2.45 2.204h.52c.044 4.576.156 7.939.258 10.167a3.707 3.707 0 0 0 3.557 3.557c2.833.13 7.501.276 14.167.276s11.334-.146 14.167-.276"/><path stroke="#2859c5" stroke-linecap="round" stroke-linejoin="round" d="M10.013 38.732A62 62 0 0 0 10 40c0 1.326.042 2.402.088 3.19a1.79 1.79 0 0 0 1.656 1.691c.762.062 1.737.12 2.756.12c1.02 0 1.994-.058 2.756-.12a1.79 1.79 0 0 0 1.655-1.691c.047-.788.089-1.864.089-3.19q0-.543-.009-1.029m10.018 0a55 55 0 0 0 .079 4.219a1.79 1.79 0 0 0 1.656 1.691c.762.062 1.737.12 2.756.12c1.02 0 1.994-.058 2.756-.12a1.79 1.79 0 0 0 1.655-1.691c.047-.788.089-1.864.089-3.19q0-.678-.013-1.268M14 33h3m17 0h-3m5.964-6q.035-2.203.036-5c0-6.186-.272-10.03-.455-11.918a1.77 1.77 0 0 0-1.577-1.603C33.181 8.282 29.638 8 24 8c-5.639 0-9.181.282-10.968.48a1.77 1.77 0 0 0-1.577 1.602C11.272 11.971 11 15.814 11 22q.002 2.797.036 5z"/></g></svg>