<svg xmlns="http://www.w3.org/2000/svg" width="1em" height="1em" viewBox="0 0 48 48"><g fill="none"><path fill="#8fbffa" d="M24 46.5c-7.632 0-12.948-.485-16.147-.911c-2.862-.382-5.068-2.554-5.479-5.419c-.417-2.91-.874-7.506-.874-13.67s.457-10.76.874-13.67c.41-2.864 2.617-5.037 5.48-5.418C11.051 6.985 16.367 6.5 24 6.5c7.632 0 12.948.485 16.147.912c2.862.381 5.068 2.554 5.479 5.418c.417 2.91.874 7.506.874 13.67s-.457 10.76-.874 13.67c-.41 2.864-2.617 5.037-5.48 5.419c-3.198.426-8.514.911-16.146.911"/><path fill="#2859c5" d="M33.5 14.518q-.754-.001-1.336-.037c-2.27-.133-3.547-2.002-3.618-3.918a69 69 0 0 1 0-5.091c.07-1.916 1.348-3.785 3.618-3.918q.582-.035 1.336-.036t1.336.036c2.27.133 3.547 2.002 3.618 3.918a69 69 0 0 1 0 5.091c-.07 1.916-1.348 3.785-3.618 3.918a23 23 0 0 1-1.336.037m-19 0q-.754-.001-1.336-.037c-2.27-.133-3.547-2.002-3.618-3.918a69 69 0 0 1 0-5.091c.07-1.916 1.348-3.785 3.618-3.918q.582-.035 1.336-.036t1.336.036c2.27.133 3.547 2.002 3.618 3.918a69 69 0 0 1 0 5.091c-.07 1.916-1.348 3.785-3.618 3.918a23 23 0 0 1-1.336.037"/><path fill="#2859c5" fill-rule="evenodd" d="M34.378 23.83a3 3 0 0 0-4.756-3.659l-7.12 9.256l-4.353-4.468a3 3 0 1 0-4.298 4.187l6.77 6.948a3 3 0 0 0 4.526-.265z" clip-rule="evenodd"/></g></svg>