<svg xmlns="http://www.w3.org/2000/svg" width="1em" height="1em" viewBox="0 0 48 48"><g fill="none" stroke-width="3"><path fill="#8fbffa" d="M19.158 4.362c.115-.24.281-.451.517-.575c.56-.294 1.868-.787 4.326-.787s3.765.493 4.325.787c.236.124.402.335.518.575c.335.7 1.082 2.314 1.643 3.92a17 17 0 0 1 3.878 2.242c1.672-.317 3.447-.477 4.222-.537c.265-.02.531.018.756.16c.535.339 1.616 1.224 2.844 3.353c1.23 2.129 1.456 3.507 1.482 4.14c.01.266-.089.515-.24.735c-.439.641-1.464 2.097-2.574 3.386a17.2 17.2 0 0 1 0 4.478c1.11 1.29 2.135 2.745 2.574 3.386c.15.22.25.47.24.735c-.026.633-.253 2.011-1.482 4.14s-2.31 3.014-2.844 3.353c-.225.142-.49.18-.757.16c-.775-.06-2.549-.22-4.22-.537a17 17 0 0 1-3.878 2.243c-.562 1.605-1.309 3.218-1.644 3.92c-.116.24-.282.45-.518.574c-.56.294-1.867.787-4.325.787s-3.765-.493-4.326-.787c-.236-.124-.402-.334-.517-.575c-.335-.7-1.083-2.314-1.644-3.92a17 17 0 0 1-3.878-2.242c-1.672.317-3.446.477-4.22.537c-.266.02-.532-.018-.757-.16c-.535-.339-1.616-1.224-2.845-3.353s-1.455-3.507-1.48-4.14c-.012-.266.088-.515.239-.735c.439-.641 1.464-2.097 2.574-3.386a17.2 17.2 0 0 1 0-4.478c-1.11-1.29-2.135-2.745-2.575-3.386c-.15-.22-.25-.47-.24-.735c.027-.633.253-2.011 1.482-4.14s2.31-3.014 2.844-3.353c.226-.142.491-.18.757-.16c.775.06 2.55.22 4.221.537a17 17 0 0 1 3.878-2.243c.561-1.605 1.309-3.219 1.644-3.92Z"/><path fill="#fff" d="M17.853 18.874c.25-1.73 1.775-2.714 3.405-2.084c1.144.443 2.686 1.133 4.713 2.21c1.938 1.03 3.432 1.941 4.56 2.695c1.758 1.175 1.758 3.435 0 4.61c-1.128.754-2.622 1.665-4.56 2.695c-2.027 1.077-3.569 1.767-4.713 2.21c-1.63.63-3.155-.354-3.405-2.084A36 36 0 0 1 17.5 24c0-2.078.163-3.81.353-5.126"/><path stroke="#2859c5" stroke-linecap="round" stroke-linejoin="round" d="M19.158 4.362c.115-.24.281-.451.517-.575c.56-.294 1.868-.787 4.326-.787s3.765.493 4.325.787c.236.124.402.335.518.575c.335.7 1.082 2.314 1.643 3.92a17 17 0 0 1 3.878 2.242c1.672-.317 3.447-.477 4.222-.537c.265-.02.531.018.756.16c.535.339 1.616 1.224 2.844 3.353c1.23 2.129 1.456 3.507 1.482 4.14c.01.266-.089.515-.24.735c-.439.641-1.464 2.097-2.574 3.386a17.2 17.2 0 0 1 0 4.478c1.11 1.29 2.135 2.745 2.574 3.386c.15.22.25.47.24.735c-.026.633-.253 2.011-1.482 4.14s-2.31 3.014-2.844 3.353c-.225.142-.49.18-.757.16c-.775-.06-2.549-.22-4.22-.537a17 17 0 0 1-3.878 2.243c-.562 1.605-1.309 3.218-1.644 3.92c-.116.24-.282.45-.518.574c-.56.294-1.867.787-4.325.787s-3.765-.493-4.326-.787c-.236-.124-.402-.334-.517-.575c-.335-.7-1.083-2.314-1.644-3.92a17 17 0 0 1-3.878-2.242c-1.672.317-3.446.477-4.22.537c-.266.02-.532-.018-.757-.16c-.535-.339-1.616-1.224-2.845-3.353s-1.455-3.507-1.48-4.14c-.012-.266.088-.515.239-.735c.439-.641 1.464-2.097 2.574-3.386a17.2 17.2 0 0 1 0-4.478c-1.11-1.29-2.135-2.745-2.575-3.386c-.15-.22-.25-.47-.24-.735c.027-.633.253-2.011 1.482-4.14s2.31-3.014 2.844-3.353c.226-.142.491-.18.757-.16c.775.06 2.55.22 4.221.537a17 17 0 0 1 3.878-2.243c.561-1.605 1.309-3.219 1.644-3.92Z"/><path stroke="#2859c5" stroke-linecap="round" stroke-linejoin="round" d="M17.853 18.874c.25-1.73 1.775-2.714 3.405-2.084c1.144.443 2.686 1.133 4.713 2.21c1.938 1.03 3.432 1.941 4.56 2.695c1.758 1.175 1.758 3.435 0 4.61c-1.128.754-2.622 1.665-4.56 2.695c-2.027 1.077-3.569 1.767-4.713 2.21c-1.63.63-3.155-.354-3.405-2.084A36 36 0 0 1 17.5 24c0-2.078.163-3.81.353-5.126"/></g></svg>