<svg xmlns="http://www.w3.org/2000/svg" width="1em" height="1em" viewBox="0 0 48 48"><g fill="none"><path fill="#2859c5" d="M5.927 1.894C7.639 1.695 10.269 1.5 14 1.5q1.734.002 3.158.05a1.5 1.5 0 0 1 .423.076c.782.26 2.651 1.114 5.204 3.777c2.407 2.51 3.265 4.377 3.557 5.245q.07.207.078.427c.043 1.234.072 2.643.079 4.244q-.46.045-.86.092c-3.353.39-5.883 3.006-6.221 6.32c-.186 1.81-.37 4.586-.41 8.634c-1.381.08-3.042.135-5.008.135c-3.73 0-6.36-.195-8.073-.394c-2.174-.253-3.801-1.93-4.022-4.09C1.705 24.07 1.5 20.88 1.5 16s.206-8.07.405-10.015c.22-2.161 1.848-3.838 4.022-4.09Z"/><path fill="#8fbffa" d="M26.412 10.966a1.5 1.5 0 0 0-.07-.318c-.292-.868-1.15-2.735-3.556-5.245c-2.554-2.663-4.424-3.517-5.205-3.776a1.5 1.5 0 0 0-.275-.064c-.141 1.558.01 3.927.184 5.824a3.72 3.72 0 0 0 3.374 3.373c1.788.165 3.997.308 5.548.206"/><path fill="#2859c5" d="M3.352 35.142a2 2 0 0 1 3.99-.285q.034.486.07.923c.126 1.547 1.302 2.708 2.888 2.817q.584.04 1.254.08c.029-.536.066-.957.104-1.283c.05-.423.285-.772.64-.953a1.25 1.25 0 0 1 1.138.022c.617.315 1.557.834 2.866 1.66c.963.608 1.634 1.11 2.1 1.508c.427.364.669.852.669 1.37c0 .516-.242 1.004-.668 1.369c-.466.397-1.137.9-2.101 1.508c-1.309.825-2.249 1.344-2.866 1.659a1.25 1.25 0 0 1-1.138.022c-.355-.18-.59-.53-.64-.953a24 24 0 0 1-.132-1.923q-.81-.047-1.502-.095c-3.52-.244-6.31-2.927-6.599-6.483a68 68 0 0 1-.073-.963m32.12-29.879a24 24 0 0 0-.13-1.87a1.2 1.2 0 0 0-.64-.952a1.25 1.25 0 0 0-1.138.022c-.617.315-1.557.834-2.866 1.66c-.964.607-1.634 1.11-2.1 1.508c-.427.364-.669.852-.669 1.369s.242 1.005.668 1.37c.467.397 1.137.9 2.101 1.507c1.309.826 2.249 1.345 2.866 1.66c.369.188.786.2 1.138.022c.355-.18.59-.53.64-.953c.04-.337.078-.775.107-1.339q1.255.067 2.251.136c1.587.11 2.762 1.27 2.888 2.816c.067.828.134 1.788.193 2.888a2 2 0 0 0 3.994-.215c-.06-1.136-.13-2.133-.2-2.998c-.29-3.556-3.079-6.238-6.599-6.482q-1.104-.076-2.504-.15Z"/><path fill="#8fbffa" d="M34 17.5c-3.73 0-6.36.195-8.073.394c-2.174.253-3.802 1.93-4.023 4.09C21.706 23.93 21.5 27.12 21.5 32s.206 8.07.404 10.015c.221 2.161 1.85 3.838 4.023 4.09c1.712.2 4.342.395 8.073.395c3.73 0 6.36-.195 8.073-.394c2.174-.253 3.801-1.93 4.023-4.09c.198-1.946.404-5.136.404-10.016c0-1.886-.03-3.52-.08-4.925a1.5 1.5 0 0 0-.078-.427c-.292-.869-1.15-2.736-3.556-5.245c-2.554-2.663-4.424-3.517-5.205-3.777a1.5 1.5 0 0 0-.423-.075A94 94 0 0 0 34 17.5"/><path fill="#2859c5" d="M46.412 26.966a1.5 1.5 0 0 0-.07-.318c-.292-.868-1.15-2.735-3.556-5.245c-2.554-2.663-4.424-3.517-5.205-3.776a1.5 1.5 0 0 0-.275-.064c-.141 1.558.01 3.927.184 5.824a3.72 3.72 0 0 0 3.374 3.373c1.788.165 3.997.308 5.548.206"/></g></svg>