<svg xmlns="http://www.w3.org/2000/svg" width="1em" height="1em" viewBox="0 0 48 48"><g fill="none" stroke-width="3"><path fill="#8fbffa" d="M27.24 27.822c1.027 1.168 1.064 2.816.115 4.048c-1.197 1.555-3.15 3.897-5.972 6.72s-5.166 4.776-6.72 5.973c-1.233.949-2.88.912-4.049-.116a79 79 0 0 1-3.627-3.435a79 79 0 0 1-3.436-3.628c-1.027-1.167-1.064-2.815-.116-4.048c1.198-1.554 3.15-3.897 5.973-6.72s5.166-4.776 6.72-5.973c1.233-.948 2.88-.911 4.048.116c.88.773 2.073 1.88 3.628 3.436a79 79 0 0 1 3.436 3.627"/><path fill="#fff" d="m32.832 7.769l-.097 3.96l-10.41 10.41a2.5 2.5 0 0 0-.281.336a98 98 0 0 1 1.76 1.72a98 98 0 0 1 1.721 1.761a2.5 2.5 0 0 0 .337-.282l10.41-10.41l3.96-.096a2 2 0 0 0 1.726-1.08l3.06-5.906a1 1 0 0 0-.18-1.167l-3.854-3.852a1 1 0 0 0-1.167-.181l-5.906 3.06a2 2 0 0 0-1.08 1.727Z"/><path stroke="#2859c5" stroke-linecap="round" stroke-linejoin="round" d="M27.24 27.822c1.027 1.168 1.064 2.816.115 4.048c-1.197 1.555-3.15 3.897-5.973 6.72s-5.165 4.776-6.72 5.973c-1.232.949-2.88.912-4.048-.116a79 79 0 0 1-3.627-3.435a79 79 0 0 1-3.436-3.628c-1.027-1.167-1.065-2.815-.116-4.048c1.197-1.554 3.15-3.897 5.973-6.72s5.165-4.776 6.72-5.973c1.233-.948 2.88-.911 4.048.116c.879.773 2.073 1.88 3.628 3.436a79 79 0 0 1 3.435 3.627Z"/><path stroke="#2859c5" stroke-linecap="round" stroke-linejoin="round" d="M22.044 22.475q.125-.177.282-.336l10.41-10.41l.096-3.96a2 2 0 0 1 1.08-1.727l5.906-3.06a1 1 0 0 1 1.167.18l3.852 3.853a1 1 0 0 1 .181 1.167l-3.06 5.906a2 2 0 0 1-1.727 1.08l-3.96.097l-10.41 10.41a2.5 2.5 0 0 1-.335.281"/></g></svg>