<svg xmlns="http://www.w3.org/2000/svg" width="1em" height="1em" viewBox="0 0 48 48"><g fill="none" stroke-width="3"><path fill="#8fbffa" d="M45 24c0 11.598-9.402 21-21 21S3 35.598 3 24S12.402 3 24 3s21 9.402 21 21"/><path fill="#fff" d="M45.251 21.352c1.136 1.136.961 3.154-.392 4.507s-3.37 1.528-4.507.392c-1.413-1.413-1.977-3.676-2.202-5.298a1.574 1.574 0 0 1 1.803-1.803c1.622.225 3.885.789 5.298 2.202m-42.501 0c-1.137 1.136-.961 3.154.391 4.507c1.353 1.353 3.371 1.528 4.507.392c1.414-1.413 1.978-3.676 2.203-5.298a1.574 1.574 0 0 0-1.803-1.803c-1.622.225-3.885.789-5.298 2.202M24 39c5.24 0 9.697-3.359 11.332-8.042c.663-1.897-1.284-3.423-3.262-3.069c-2.144.385-4.986.748-8.07.748s-5.926-.363-8.07-.748c-1.977-.354-3.924 1.172-3.262 3.07C14.304 35.64 18.76 39 24 39"/><path stroke="#2859c5" stroke-linecap="round" stroke-linejoin="round" d="M42.979 15c-3.37-7.095-10.602-12-18.98-12C15.623 3 8.392 7.905 5.02 15m38.402 17C40.276 39.63 32.765 45 24 45S7.723 39.63 4.577 32"/><path stroke="#2859c5" stroke-linejoin="round" d="M45.25 21.351c1.136 1.137.961 3.154-.392 4.507s-3.37 1.529-4.507.392c-1.413-1.413-1.977-3.676-2.202-5.298a1.574 1.574 0 0 1 1.803-1.803c1.622.224 3.885.789 5.298 2.202Zm-42.5 0c-1.137 1.137-.961 3.154.391 4.507c1.353 1.353 3.371 1.529 4.507.392c1.414-1.413 1.978-3.676 2.203-5.298a1.574 1.574 0 0 0-1.803-1.803c-1.622.224-3.885.789-5.298 2.202Z"/><path stroke="#2859c5" stroke-linecap="round" stroke-linejoin="round" d="M29 15s.875-2 3.5-2s3.5 2 3.5 2m-17 0s-.875-2-3.5-2s-3.5 2-3.5 2m12 24c5.24 0 9.697-3.36 11.332-8.043c.663-1.897-1.284-3.423-3.262-3.069c-2.144.385-4.986.748-8.07.748s-5.926-.363-8.07-.748c-1.977-.354-3.924 1.172-3.262 3.07C14.304 35.64 18.76 39 24 39"/></g></svg>