<?xml version="1.0" encoding="UTF-8"?>
<svg version="1.1" xmlns="http://www.w3.org/2000/svg" width="398" height="394">
<path d="M0 0 C2.41304769 0.78040621 4.84252265 1.47554672 7.28125 2.17114258 C12.39810214 3.69955296 17.20327969 5.71285558 22.0546875 7.93286133 C22.92013184 8.32650879 23.78557617 8.72015625 24.67724609 9.12573242 C43.12555231 17.64743474 59.08069466 29.02917989 74.05859375 42.72192383 C75.83194346 44.31948061 77.62152732 45.82919625 79.4921875 47.30786133 C85.59665704 52.5984016 90.45060183 59.10760902 95.44921875 65.42114258 C96.97403073 67.33117022 98.52815215 69.20160082 100.1171875 71.05786133 C102.15092125 73.55644851 103.671891 75.97502414 105.3046875 78.74536133 C106.01316433 79.89061012 106.72289919 81.0350812 107.43359375 82.17895508 C122.11943994 106.14996769 131.77965217 131.7929327 135.3046875 159.74536133 C135.3975 160.38924805 135.4903125 161.03313477 135.5859375 161.6965332 C139.28897569 189.81317317 136.02141243 218.92996279 127.3046875 245.74536133 C127.09585937 246.40858398 126.88703125 247.07180664 126.671875 247.75512695 C123.54905855 257.61281755 119.08769797 266.62011052 114.3046875 275.74536133 C113.57525555 277.159287 112.84608905 278.57334965 112.1171875 279.98754883 C111.40994864 281.34489049 110.7016526 282.70168196 109.9921875 284.05786133 C109.66694092 284.68619873 109.34169434 285.31453613 109.0065918 285.96191406 C107.38658891 289.01472136 105.78846511 291.36812646 103.3046875 293.74536133 C102.302577 295.41075987 101.30293514 297.0776445 100.3046875 298.74536133 C98.6365935 301.04391042 96.88179107 303.27038676 95.1171875 305.49536133 C94.3912439 306.41309326 94.3912439 306.41309326 93.65063477 307.34936523 C84.89541689 318.34361769 84.89541689 318.34361769 81.3046875 321.74536133 C80.6446875 321.74536133 79.9846875 321.74536133 79.3046875 321.74536133 C79.03914063 322.34348633 78.77359375 322.94161133 78.5 323.55786133 C73.66365559 332.4086877 61.31719094 338.86435567 53.3046875 344.74536133 C51.88349609 345.79336914 51.88349609 345.79336914 50.43359375 346.86254883 C44.64558699 351.02991369 38.6878633 354.56502462 32.3046875 357.74536133 C31.30429443 358.24422852 31.30429443 358.24422852 30.28369141 358.75317383 C-6.31763422 376.74242205 -46.38268374 382.58933973 -86.6953125 376.74536133 C-87.44651367 376.64352539 -88.19771484 376.54168945 -88.97167969 376.43676758 C-99.73287021 374.96250723 -109.47427523 372.49158396 -119.6953125 368.74536133 C-120.83226562 368.36508789 -121.96921875 367.98481445 -123.140625 367.59301758 C-141.09686058 361.51898345 -158.07813398 352.79461304 -173.01171875 341.05395508 C-174.85625841 339.62026416 -176.76657986 338.31301036 -178.6953125 336.99536133 C-179.6853125 336.25286133 -180.6753125 335.51036133 -181.6953125 334.74536133 C-181.6953125 334.08536133 -181.6953125 333.42536133 -181.6953125 332.74536133 C-182.530625 332.40504883 -182.530625 332.40504883 -183.3828125 332.05786133 C-186.34222611 330.37819415 -188.31940036 328.17784281 -190.6953125 325.74536133 C-191.6853125 324.94098633 -192.6753125 324.13661133 -193.6953125 323.30786133 C-196.82661813 320.63320443 -199.12150095 317.94523515 -201.6953125 314.74536133 C-202.39333984 314.05506836 -202.39333984 314.05506836 -203.10546875 313.35083008 C-209.47409099 306.91961696 -214.62464888 299.2080554 -219.6953125 291.74536133 C-220.39140625 290.73860352 -221.0875 289.7318457 -221.8046875 288.69458008 C-225.36181681 283.48221724 -228.39532385 278.61033238 -230.6953125 272.74536133 C-231.31664062 271.69219727 -231.93796875 270.6390332 -232.578125 269.55395508 C-234.79800527 265.72415709 -236.33413866 261.78007542 -237.8203125 257.62036133 C-239.6743444 252.45154921 -239.6743444 252.45154921 -241.72265625 247.35864258 C-243.21588821 243.3467061 -244.14666404 239.21922463 -245.1328125 235.05786133 C-245.43928711 233.81552734 -245.43928711 233.81552734 -245.75195312 232.5480957 C-249.50013238 216.84310787 -251.24803999 201.69666488 -251.1328125 185.55786133 C-251.13010345 184.66316132 -251.12739441 183.7684613 -251.12460327 182.84664917 C-251.06030612 168.80968856 -250.1509523 155.40283328 -246.6953125 141.74536133 C-246.40648193 140.54049072 -246.40648193 140.54049072 -246.11181641 139.3112793 C-243.54927585 128.72929268 -239.98617239 118.74564408 -235.6953125 108.74536133 C-235.22738281 107.62387695 -234.75945312 106.50239258 -234.27734375 105.34692383 C-232.48314588 101.26235485 -230.52131543 97.28753348 -228.5078125 93.30786133 C-228.13978516 92.57631836 -227.77175781 91.84477539 -227.39257812 91.09106445 C-226.49533611 89.30823292 -225.59558657 87.5266637 -224.6953125 85.74536133 C-224.0353125 85.74536133 -223.3753125 85.74536133 -222.6953125 85.74536133 C-222.4271875 85.02993164 -222.1590625 84.31450195 -221.8828125 83.57739258 C-220.67799943 80.70407194 -219.28294138 78.11198506 -217.6953125 75.43286133 C-216.921875 74.10834961 -216.921875 74.10834961 -216.1328125 72.75708008 C-215.6584375 72.09321289 -215.1840625 71.4293457 -214.6953125 70.74536133 C-214.0353125 70.74536133 -213.3753125 70.74536133 -212.6953125 70.74536133 C-212.4890625 70.06473633 -212.2828125 69.38411133 -212.0703125 68.68286133 C-209.28034427 62.72247465 -204.29781908 58.34786791 -199.6953125 53.74536133 C-198.8703125 52.73473633 -198.0453125 51.72411133 -197.1953125 50.68286133 C-194.85492858 47.93291022 -192.53622902 45.94707163 -189.6953125 43.74536133 C-188.9115625 42.96161133 -188.1278125 42.17786133 -187.3203125 41.37036133 C-181.00922836 35.05927719 -173.95503009 29.91380225 -166.6953125 24.74536133 C-165.78652344 24.08665039 -164.87773437 23.42793945 -163.94140625 22.74926758 C-163.07644531 22.12922852 -162.21148437 21.50918945 -161.3203125 20.87036133 C-160.54945313 20.31606445 -159.77859375 19.76176758 -158.984375 19.19067383 C-156.6042722 17.68787854 -154.31741356 16.76294997 -151.6953125 15.74536133 C-149.13174451 14.51788095 -146.6036568 13.22133377 -144.0703125 11.93286133 C-141.92516384 10.85725678 -139.778403 9.78492734 -137.63134766 8.71313477 C-136.01928321 7.90730583 -134.40971311 7.0964893 -132.80078125 6.28442383 C-124.76027883 2.40620914 -116.2927854 0.04510055 -107.6953125 -2.25463867 C-106.79925293 -2.50415283 -105.90319336 -2.75366699 -104.97998047 -3.01074219 C-97.26499619 -5.07220748 -89.63599032 -6.16818933 -81.6953125 -6.94213867 C-80.41857666 -7.06733887 -79.14184082 -7.19253906 -77.82641602 -7.3215332 C-51.55198666 -9.75358478 -25.18836829 -8.33232517 0 0 Z M-105.2578125 16.99536133 C-106.32572021 17.29909668 -107.39362793 17.60283203 -108.49389648 17.91577148 C-126.98148935 23.33038406 -144.3066305 32.12678786 -159.6953125 43.74536133 C-161.27505859 44.90938477 -161.27505859 44.90938477 -162.88671875 46.09692383 C-175.70515404 55.71801286 -187.0508733 66.93737032 -196.6953125 79.74536133 C-197.35402344 80.54844727 -198.01273438 81.3515332 -198.69140625 82.17895508 C-199.33207031 82.96399414 -199.97273438 83.7490332 -200.6328125 84.55786133 C-201.48166016 85.5884668 -201.48166016 85.5884668 -202.34765625 86.63989258 C-203.86778225 89.01481407 -204.31281214 90.97102326 -204.6953125 93.74536133 C-205.3553125 93.74536133 -206.0153125 93.74536133 -206.6953125 93.74536133 C-218.70535051 115.06979755 -226.89201537 136.52272308 -230.6953125 160.74536133 C-230.88738281 161.92485352 -231.07945312 163.1043457 -231.27734375 164.31958008 C-232.06601276 171.024508 -231.93977252 177.81504516 -231.9453125 184.55786133 C-231.94598724 185.29490295 -231.94666199 186.03194458 -231.94735718 186.7913208 C-231.93055739 198.35428703 -231.31902172 209.45445266 -228.6953125 220.74536133 C-228.52370605 221.51412598 -228.35209961 222.28289062 -228.17529297 223.07495117 C-223.79653591 242.31565577 -216.91616557 262.96568841 -204.6953125 278.74536133 C-204.21964844 279.53942383 -203.74398437 280.33348633 -203.25390625 281.15161133 C-195.64108042 293.82057461 -185.11751632 305.42111331 -173.6953125 314.74536133 C-172.91800781 315.52782227 -172.14070313 316.3102832 -171.33984375 317.11645508 C-165.13346773 323.28616123 -158.42454264 328.64413717 -150.6953125 332.74536133 C-150.09074219 333.21329102 -149.48617187 333.6812207 -148.86328125 334.16333008 C-146.34098633 336.00392367 -143.75054748 337.31294735 -140.9453125 338.68286133 C-139.87796875 339.2062207 -138.810625 339.72958008 -137.7109375 340.26879883 C-136.71578125 340.75606445 -135.720625 341.24333008 -134.6953125 341.74536133 C-133.3614219 342.43177949 -132.02800376 343.11911752 -130.6953125 343.80786133 C-121.20311558 348.50442621 -111.56269335 351.84872062 -101.3203125 354.49536133 C-99.61681641 354.94975586 -99.61681641 354.94975586 -97.87890625 355.41333008 C-81.31545776 359.78235225 -64.72681683 360.04949533 -47.6953125 359.74536133 C-46.97730469 359.73811035 -46.25929687 359.73085938 -45.51953125 359.72338867 C-33.40345564 359.55760749 -22.31069561 357.08722393 -10.6953125 353.74536133 C-9.9317041 353.52799316 -9.1680957 353.310625 -8.38134766 353.08666992 C-1.55076803 351.11904403 5.18931205 349.15654161 11.4453125 345.71020508 C13.71325521 344.53335246 16.04191034 343.65314052 18.4296875 342.74536133 C22.46071191 341.16853747 25.75055478 339.24081621 29.3046875 336.74536133 C30.71465873 335.96234818 32.13203999 335.19259979 33.5546875 334.43286133 C38.70531155 331.60747641 43.77488453 328.49970742 48.3046875 324.74536133 C48.3046875 324.08536133 48.3046875 323.42536133 48.3046875 322.74536133 C49.0265625 322.51848633 49.7484375 322.29161133 50.4921875 322.05786133 C53.8537303 320.48914135 55.72557747 318.38894911 58.3046875 315.74536133 C59.1296875 315.27098633 59.9546875 314.79661133 60.8046875 314.30786133 C64.034422 312.28927726 65.95199774 309.71717997 68.3046875 306.74536133 C69.3046875 305.74536133 70.3046875 304.74536133 71.3046875 303.74536133 C71.9646875 302.92036133 72.6246875 302.09536133 73.3046875 301.24536133 C75.3046875 298.74536133 75.3046875 298.74536133 76.6640625 297.43676758 C84.27354818 289.5917502 92.39014391 278.93883284 96.3046875 268.74536133 C97.18607599 266.98804187 98.0832246 265.23857784 98.9921875 263.49536133 C106.51736003 248.42670685 111.69534721 233.21441323 115.3046875 216.74536133 C115.50191406 215.85413574 115.69914062 214.96291016 115.90234375 214.04467773 C117.72784547 204.6612729 117.70207905 195.2681033 117.6796875 185.74536133 C117.67914368 184.87719788 117.67859985 184.00903442 117.67803955 183.11456299 C117.64081966 170.20581206 116.88179582 158.20522186 113.3046875 145.74536133 C112.82696289 143.92439144 112.35182788 142.10274075 111.87890625 140.28051758 C109.41861705 131.03657289 106.62511055 122.30850198 102.3046875 113.74536133 C101.77416119 112.47854384 101.25226318 111.20805054 100.7421875 109.93286133 C99.38090791 106.682464 99.38090791 106.682464 97.3046875 103.74536133 C95.12860285 100.48123435 93.75757091 97.37756985 92.3046875 93.74536133 C91.6446875 93.74536133 90.9846875 93.74536133 90.3046875 93.74536133 C90.04300781 93.0209082 89.78132813 92.29645508 89.51171875 91.55004883 C88.27436155 88.6748952 86.81911203 86.40618119 84.9921875 83.87036133 C84.05826172 82.56905273 84.05826172 82.56905273 83.10546875 81.24145508 C82.51121094 80.41774414 81.91695313 79.5940332 81.3046875 78.74536133 C80.61439453 77.74182617 80.61439453 77.74182617 79.91015625 76.71801758 C77.33858373 72.98719649 74.52956318 69.91324362 71.3046875 66.74536133 C70.51449219 65.94356445 69.72429687 65.14176758 68.91015625 64.31567383 C59.73402867 54.42038362 59.73402867 54.42038362 48.3046875 47.74536133 C47.9746875 46.75536133 47.6446875 45.76536133 47.3046875 44.74536133 C45.35144106 43.26910552 43.44171223 41.96742836 41.3671875 40.68286133 C40.44305054 40.1022998 40.44305054 40.1022998 39.50024414 39.51000977 C27.60434002 32.1290917 15.64687049 25.15010941 2.3046875 20.74536133 C1.52867187 20.48625977 0.75265625 20.2271582 -0.046875 19.96020508 C-2.58298878 19.16276724 -5.1308157 18.44690561 -7.6953125 17.74536133 C-8.38431641 17.55441895 -9.07332031 17.36347656 -9.78320312 17.16674805 C-12.21003642 16.49708422 -14.63966305 15.83853152 -17.0703125 15.18286133 C-17.83682129 14.97274414 -18.60333008 14.76262695 -19.39306641 14.54614258 C-31.13126645 11.43107122 -42.38028109 10.39650455 -54.47485352 10.4296875 C-56.86196225 10.43283385 -59.24781019 10.40935051 -61.63476562 10.3840332 C-76.70119236 10.32013357 -90.78161577 12.86335511 -105.2578125 16.99536133 Z " fill="#1F3F99" transform="translate(257.6953125,12.254638671875)"/>
<path d="M0 0 C2.02476702 1.12033517 3.98745856 2.03723958 6.13574219 2.88256836 C9.38609184 4.32022301 11.87118802 6.01288011 14.69433594 8.12866211 C16.55339332 9.50119548 16.55339332 9.50119548 19.51074219 10.88256836 C22.53887639 12.39663546 24.77179691 14.17469698 27.38574219 16.32006836 C28.60970703 17.2965332 28.60970703 17.2965332 29.85839844 18.29272461 C41.61652392 27.78080475 51.94437152 37.54142026 61.38574219 49.32006836 C61.97097656 50.03936523 62.55621094 50.75866211 63.15917969 51.49975586 C67.51984639 57.06018271 70.89506806 63.19237165 74.38574219 69.32006836 C74.88332031 70.14506836 75.38089844 70.97006836 75.89355469 71.82006836 C97.26754799 107.62990008 102.48600605 154.31573159 93.04052734 194.76098633 C91.24552113 201.77636856 88.98726418 208.56632013 86.38574219 215.32006836 C85.80179687 216.89208008 85.80179687 216.89208008 85.20605469 218.49584961 C73.72879259 247.74307958 53.81705711 272.94193998 29.06933594 291.99487305 C27.39121297 293.31576218 25.7596321 294.68003239 24.13183594 296.06225586 C21.31653158 298.37697267 18.662248 299.74734557 15.38574219 301.32006836 C14.29261719 302.04194336 13.19949219 302.76381836 12.07324219 303.50756836 C-21.67004085 324.7486142 -66.66682469 332.24022694 -105.66503906 324.17163086 C-106.27500732 324.03273438 -106.88497559 323.89383789 -107.51342773 323.75073242 C-110.11971402 323.2164513 -112.73996258 322.85548672 -115.37207031 322.46850586 C-121.61071002 321.44085039 -127.28884552 319.58942904 -133.17675781 317.32006836 C-134.7260498 316.72947632 -134.7260498 316.72947632 -136.30664062 316.12695312 C-150.66654499 310.50925417 -164.08740241 303.31469797 -176.61425781 294.32006836 C-177.44054687 293.73999023 -178.26683594 293.15991211 -179.11816406 292.56225586 C-183.2139688 289.61327645 -183.2139688 289.61327645 -184.61425781 288.32006836 C-184.61425781 287.66006836 -184.61425781 287.00006836 -184.61425781 286.32006836 C-185.21238281 286.03131836 -185.81050781 285.74256836 -186.42675781 285.44506836 C-188.61425781 284.32006836 -188.61425781 284.32006836 -191.61425781 282.32006836 C-191.61425781 281.66006836 -191.61425781 281.00006836 -191.61425781 280.32006836 C-192.19175781 280.08030273 -192.76925781 279.84053711 -193.36425781 279.59350586 C-196.05864914 278.06855521 -197.61167143 276.29967188 -199.61425781 273.94506836 C-201.57942425 271.64981537 -203.52594402 269.40821394 -205.66503906 267.27319336 C-212.47742726 260.44715308 -217.51507873 252.08136089 -222.59472656 243.94360352 C-223.4613621 242.56354453 -224.34820663 241.19620924 -225.23925781 239.83178711 C-228.62049539 234.51185081 -231.27835047 228.93169505 -233.86425781 223.19506836 C-234.20593994 222.44257813 -234.54762207 221.69008789 -234.8996582 220.91479492 C-236.7330939 216.74835227 -238.13220707 212.70851433 -239.14453125 208.2722168 C-239.61794158 206.30475892 -240.20026347 204.40974134 -240.83300781 202.48803711 C-249.31164928 176.46771656 -250.749569 141.50850861 -243.17675781 115.25756836 C-242.95955078 114.45641602 -242.74234375 113.65526367 -242.51855469 112.82983398 C-241.66492103 109.73573241 -240.7835961 106.73862149 -239.57910156 103.76147461 C-238.48410005 101.17322121 -238.48410005 101.17322121 -237.79785156 97.71069336 C-236.47198102 92.20024604 -234.05085298 87.1950992 -231.67675781 82.07006836 C-231.01256836 80.60053711 -231.01256836 80.60053711 -230.33496094 79.10131836 C-228.37548733 74.82610322 -226.49430496 71.04929203 -223.61425781 67.32006836 C-223.05738281 66.30944336 -222.50050781 65.29881836 -221.92675781 64.25756836 C-216.79969625 55.09220348 -210.0142706 46.72008114 -202.61425781 39.32006836 C-201.43939129 37.99395466 -200.27325176 36.66007654 -199.11425781 35.32006836 C-191.44249576 26.48339667 -191.44249576 26.48339667 -186.61425781 23.32006836 C-185.95425781 23.32006836 -185.29425781 23.32006836 -184.61425781 23.32006836 C-184.34613281 22.70131836 -184.07800781 22.08256836 -183.80175781 21.44506836 C-182.61425781 19.32006836 -182.61425781 19.32006836 -179.61425781 17.32006836 C-178.62425781 17.32006836 -177.63425781 17.32006836 -176.61425781 17.32006836 C-176.28425781 16.33006836 -175.95425781 15.34006836 -175.61425781 14.32006836 C-173.28903581 12.63525499 -171.00019465 11.11783963 -168.55175781 9.63256836 C-167.82714355 9.19050049 -167.1025293 8.74843262 -166.35595703 8.29296875 C-118.27191196 -20.63560138 -50.38267527 -28.77359207 0 0 Z M-106.61425781 0.32006836 C-107.90589844 0.5869043 -109.19753906 0.85374023 -110.52832031 1.12866211 C-118.45345843 2.91539164 -126.00683135 5.4106826 -133.61425781 8.25756836 C-134.48671143 8.58136475 -135.35916504 8.90516113 -136.25805664 9.23876953 C-141.12421086 11.12049862 -145.47995714 13.27398089 -149.82519531 16.16772461 C-151.70092514 17.3758912 -153.62114594 18.38220199 -155.61425781 19.38256836 C-172.51863682 28.73516293 -188.17322509 42.83793692 -199.61425781 58.32006836 C-200.86299885 59.8835747 -202.11297592 61.44609474 -203.36425781 63.00756836 C-205.67963527 66.00087164 -207.73671175 68.99373233 -209.52832031 72.33959961 C-210.37459663 73.88298844 -211.27692849 75.39568407 -212.20019531 76.89428711 C-233.0653559 111.01656938 -237.61849223 153.7799995 -228.61425781 192.32006836 C-224.47143513 208.38143418 -217.95248854 223.01705921 -209.61425781 237.32006836 C-209.16099121 238.10124023 -208.70772461 238.88241211 -208.24072266 239.68725586 C-207.80066895 240.42202148 -207.36061523 241.15678711 -206.90722656 241.91381836 C-206.5143042 242.5705957 -206.12138184 243.22737305 -205.71655273 243.90405273 C-205.17091675 244.60498047 -205.17091675 244.60498047 -204.61425781 245.32006836 C-203.95425781 245.32006836 -203.29425781 245.32006836 -202.61425781 245.32006836 C-202.30101562 246.33713867 -202.30101562 246.33713867 -201.98144531 247.37475586 C-200.15519983 251.30901041 -197.59635995 254.21027005 -194.73925781 257.44506836 C-194.15772949 258.10667969 -193.57620117 258.76829102 -192.97705078 259.44995117 C-165.8990743 289.81077427 -127.17698477 310.05708924 -86.25073242 312.52270508 C-82.8064192 312.62218161 -79.37243492 312.64913411 -75.92675781 312.63256836 C-74.70214844 312.62765381 -73.47753906 312.62273926 -72.21582031 312.61767578 C-62.39209501 312.49151493 -53.1737431 311.51429 -43.61425781 309.32006836 C-42.36128906 309.04670654 -42.36128906 309.04670654 -41.08300781 308.76782227 C-32.1483336 306.80186546 -23.52844571 304.89464989 -15.49316406 300.36694336 C-13.61425781 299.32006836 -13.61425781 299.32006836 -10.67675781 298.38256836 C-1.374812 295.15536267 7.25736823 289.23038125 15.19824219 283.50756836 C15.81626709 283.06324463 16.43429199 282.6189209 17.07104492 282.16113281 C18.84458572 280.88348565 20.6154546 279.60221747 22.38574219 278.32006836 C23.21589844 277.72194336 24.04605469 277.12381836 24.90136719 276.50756836 C29.82607607 272.89862139 33.96287562 269.02750824 37.88574219 264.32006836 C40.38574219 261.32006836 40.38574219 261.32006836 42.76464844 258.99584961 C46.31428066 255.37215651 49.18671549 251.37345509 52.18652344 247.29272461 C53.44579243 245.59058659 54.72382948 243.90122016 56.05371094 242.25366211 C63.54972034 232.94896411 68.00399929 221.32280448 72.38574219 210.32006836 C72.69568115 209.60874756 73.00562012 208.89742676 73.32495117 208.16455078 C76.10902106 201.61029069 77.71450939 195.10972678 79.07324219 188.13256836 C79.39131836 186.57119141 79.39131836 186.57119141 79.71582031 184.97827148 C80.29591437 182.09610071 80.84818761 179.21043722 81.38574219 176.32006836 C81.59328125 175.20760742 81.80082031 174.09514648 82.01464844 172.94897461 C83.70269003 156.44170477 83.21339137 139.46847671 79.38574219 123.32006836 C79.08925989 121.88459165 78.79639432 120.44836399 78.50683594 119.01147461 C76.52315373 109.51051401 73.47787222 101.11541985 69.38574219 92.32006836 C68.89589844 91.16249023 68.40605469 90.00491211 67.90136719 88.81225586 C63.5639718 78.81836031 58.00822613 69.93641843 51.38574219 61.32006836 C50.53340464 60.18783889 49.68187671 59.05499961 48.83105469 57.92163086 C44.2654557 51.88464204 39.83491108 46.07940348 33.88574219 41.32006836 C31.38574219 39.32006836 31.38574219 39.32006836 29.08496094 36.96850586 C24.59230491 32.56037158 19.46318554 29.02144174 14.38574219 25.32006836 C13.53367187 24.68456055 12.68160156 24.04905273 11.80371094 23.39428711 C-3.1850039 12.47359181 -25.63720951 1.17153533 -44.61425781 1.32006836 C-43.34636442 8.99875357 -41.6264966 16.44705613 -39.55175781 23.94506836 C-39.25519287 25.03158691 -38.95862793 26.11810547 -38.65307617 27.23754883 C-37.82746614 30.26034342 -36.99780159 33.28199765 -36.1673584 36.3034668 C-35.15768709 39.9847226 -34.15585067 43.66811268 -33.15332031 47.35131836 C-30.97778764 55.34204035 -28.79705501 63.33132759 -26.61425781 71.32006836 C-35.85425781 71.32006836 -45.09425781 71.32006836 -54.61425781 71.32006836 C-58.27649186 56.80677049 -58.27649186 56.80677049 -59.81738281 50.17944336 C-60.02000732 49.3099707 -60.22263184 48.44049805 -60.43139648 47.54467773 C-60.84673112 45.76238381 -61.26094717 43.97982886 -61.67407227 42.19702148 C-62.86367512 37.16086745 -64.2241067 32.23273003 -65.79760742 27.30371094 C-68.0309964 20.29293503 -69.1937223 14.61569006 -67.61425781 7.32006836 C-67.28425781 5.01006836 -66.95425781 2.70006836 -66.61425781 0.32006836 C-60.67425781 0.32006836 -54.73425781 0.32006836 -48.61425781 0.32006836 C-48.61425781 -0.00993164 -48.61425781 -0.33993164 -48.61425781 -0.67993164 C-57.39459987 -2.2533502 -65.88415038 -3.03651082 -74.80175781 -2.99243164 C-76.56386597 -2.98614746 -76.56386597 -2.98614746 -78.36157227 -2.97973633 C-88.05077127 -2.85499693 -97.17698193 -1.80043446 -106.61425781 0.32006836 Z " fill="#0AA04A" transform="translate(275.6142578125,42.679931640625)"/>
<path d="M0 0 C9.24 0 18.48 0 28 0 C30.55814342 11.81658963 33.01477198 23.65310347 35.44384766 35.49682617 C35.89985889 37.71657116 36.35755537 39.93597058 36.81689453 42.1550293 C37.48861793 45.40073757 38.15501863 48.64749975 38.8203125 51.89453125 C39.02447784 52.8759761 39.22864319 53.85742096 39.43899536 54.86860657 C39.62944427 55.80375595 39.81989319 56.73890533 40.01611328 57.70239258 C40.18249298 58.51065994 40.34887268 59.31892731 40.52029419 60.15168762 C41.18130681 64.07653152 41.56046952 68.04422571 42 72 C33.09 72 24.18 72 15 72 C13 62 13 62 12.25390625 58.21484375 C12.02574219 57.13332031 11.79757813 56.05179688 11.5625 54.9375 C11.33691406 53.83277344 11.11132812 52.72804687 10.87890625 51.58984375 C10.58886719 50.73519531 10.29882812 49.88054687 10 49 C8.515 48.505 8.515 48.505 7 48 C7.12117188 48.62044189 7.24234375 49.24088379 7.3671875 49.88012695 C7.91434602 52.69036469 8.45722007 55.50141343 9 58.3125 C9.19078125 59.28896484 9.3815625 60.26542969 9.578125 61.27148438 C9.75859375 62.20927734 9.9390625 63.14707031 10.125 64.11328125 C10.29257813 64.97735596 10.46015625 65.84143066 10.6328125 66.73168945 C11 69 11 69 11 72 C1.76 72 -7.48 72 -17 72 C-16.31824649 63.81895793 -15.62329387 57.62517782 -13.125 50.125 C-10.92734234 43.19997408 -9.13803434 36.40508608 -7.72265625 29.27734375 C-6.50301513 23.74610646 -4.76041044 18.37952833 -3 13 C-2.01 13.33 -1.02 13.66 0 14 C0.79956055 16.26904297 0.79956055 16.26904297 1.38671875 19.2421875 C1.60263672 20.30824219 1.81855469 21.37429687 2.04101562 22.47265625 C2.36102539 24.15681641 2.36102539 24.15681641 2.6875 25.875 C2.91244141 26.99003906 3.13738281 28.10507813 3.36914062 29.25390625 C5 37.47264438 5 37.47264438 5 41 C6.32 41 7.64 41 9 41 C8.69835937 40.16210938 8.39671875 39.32421875 8.0859375 38.4609375 C6.95454793 34.85514196 6.26691694 31.34811827 5.625 27.625 C4.45825373 21.04745824 2.98162955 14.59778077 1.27001953 8.14111328 C0.53320642 5.32828429 0 2.92399225 0 0 Z " fill="#000000" transform="translate(192,160)"/>
<path d="M0 0 C7.26 0 14.52 0 22 0 C26.36376823 15.62667841 30.65284442 31.27318082 34.82159424 46.95306396 C35.2728476 48.64720266 35.72624843 50.34077085 36.18182373 52.03375244 C36.82521464 54.42718075 37.46049234 56.8226236 38.09375 59.21875 C38.28711945 59.93219574 38.48048889 60.64564148 38.67971802 61.38070679 C39.66375506 65.14306118 40 68.04070625 40 72 C30.76 72 21.52 72 12 72 C8.77784385 60.86891511 5.60237852 49.76570674 2.875 38.50390625 C2.10188661 35.40800128 1.22712442 32.36857678 0.3125 29.3125 C-2.43255794 19.25231515 -2.29210713 10.11223732 0 0 Z " fill="#000000" transform="translate(108,160)"/>
<path d="M0 0 C7.26 0 14.52 0 22 0 C22.78375 3.34125 23.5675 6.6825 24.375 10.125 C26.33438721 18.39460715 28.40779147 26.6266092 30.58984375 34.83984375 C30.81375793 35.68341431 31.03767212 36.52698486 31.26837158 37.39611816 C32.39047292 41.61613594 33.52058152 45.83385292 34.65966797 50.04931641 C35.08181659 51.62790004 35.50385897 53.2065121 35.92578125 54.78515625 C36.12034409 55.49582748 36.31490692 56.20649872 36.5153656 56.93870544 C37.75953149 61.61614186 38.58124027 66.17247411 39 71 C38 72 38 72 35.49975586 72.11352539 C34.41573486 72.10828857 33.33171387 72.10305176 32.21484375 72.09765625 C30.46010742 72.09282227 30.46010742 72.09282227 28.66992188 72.08789062 C27.43822266 72.07951172 26.20652344 72.07113281 24.9375 72.0625 C23.08415039 72.05573242 23.08415039 72.05573242 21.19335938 72.04882812 C18.12885883 72.03699608 15.06445279 72.02051173 12 72 C9.13752149 65.96925892 7.59865902 59.85573394 6.0625 53.375 C4.45122742 46.73275396 2.8298494 40.13718764 0.75 33.625 C-3.15170377 21.39966152 -3.6727107 12.39539861 0 0 Z " fill="#000000" transform="translate(77,160)"/>
<path d="M0 0 C6.93 0 13.86 0 21 0 C22.83143199 4.88381864 24.45798854 9.31744206 25.76171875 14.2890625 C26.07238281 15.46428467 26.38304687 16.63950684 26.703125 17.8503418 C27.19039062 19.71879761 27.19039062 19.71879761 27.6875 21.625 C28.03215944 22.93605706 28.37721875 24.24700906 28.72265625 25.55786133 C29.26110847 27.60137419 29.79923537 29.64496675 30.33578491 31.6889801 C31.63728572 36.64323529 32.96343267 41.59046849 34.30078125 46.53515625 C34.85470899 48.58880213 35.40839882 50.64251206 35.96206665 52.69622803 C36.31945413 54.01917198 36.67798726 55.341807 37.03768921 56.66412354 C37.53896179 58.50822931 38.03522336 60.35369501 38.53125 62.19921875 C38.81548828 63.24940186 39.09972656 64.29958496 39.39257812 65.3815918 C40 68 40 68 40 71 C30.76 71 21.52 71 12 71 C8.84451975 61.35324608 6.13934738 51.77274437 3.8894043 41.87695312 C2.72774279 36.83433846 1.39603307 31.91157313 -0.18139648 26.98364258 C-3.47275182 16.68092417 -2.96589781 10.38064235 0 0 Z " fill="#000000" transform="translate(209,43)"/>
<path d="M0 0 C6.93 0 13.86 0 21 0 C27.67524483 23.47102214 33.96113383 47.12015596 39 71 C29.76 71 20.52 71 11 71 C7.79982632 60.59943555 4.70024491 50.29140341 2.33569336 39.67089844 C1.53417218 36.11141383 0.61522656 32.71963101 -0.6875 29.3125 C-3.81198736 20.47123083 -3.66630037 10.8876679 -1 2 C-0.67 1.34 -0.34 0.68 0 0 Z " fill="#000000" transform="translate(178,43)"/>
<path d="M0 0 C4.31248609 -0.02886537 8.62494762 -0.04675255 12.9375 -0.0625 C14.16919922 -0.07087891 15.40089844 -0.07925781 16.66992188 -0.08789062 C17.83974609 -0.09111328 19.00957031 -0.09433594 20.21484375 -0.09765625 C21.84087524 -0.10551147 21.84087524 -0.10551147 23.49975586 -0.11352539 C26 0 26 0 27 1 C27.09952198 3.13670892 27.12799678 5.27674655 27.12939453 7.41577148 C27.13114685 8.08570129 27.13289917 8.7556311 27.13470459 9.44586182 C27.13912291 11.67096512 27.13618487 13.89598957 27.1328125 16.12109375 C27.13348563 17.66187048 27.13445572 19.2026471 27.13571167 20.74342346 C27.13718868 23.97747811 27.13503429 27.21150519 27.13037109 30.44555664 C27.12467856 34.59642708 27.12794976 38.7472328 27.13394356 42.89810085 C27.13755316 46.08161407 27.13640866 49.26511189 27.13381577 52.44862556 C27.13314735 53.97927928 27.13397194 55.50993438 27.13629532 57.04058647 C27.13882784 59.17870675 27.13497255 61.31672158 27.12939453 63.45483398 C27.12859894 64.67315414 27.12780334 65.8914743 27.12698364 67.14671326 C27 70 27 70 26 72 C19.6546029 72.55177366 14.54166585 71.17047229 9 68 C4.00620758 63.76812811 1.18707305 59.47048419 0 53 C-0.2655089 48.90542948 -0.23300888 44.8243348 -0.1953125 40.72265625 C-0.1924826 39.5561705 -0.18965271 38.38968475 -0.18673706 37.18785095 C-0.17558388 33.47929424 -0.15048786 29.77098315 -0.125 26.0625 C-0.11496393 23.54101912 -0.10583918 21.01953445 -0.09765625 18.49804688 C-0.07566044 12.3319481 -0.04223118 6.16599161 0 0 Z " fill="#000000" transform="translate(283,160)"/>
<path d="M0 0 C8.91 0 17.82 0 27 0 C27 23.76 27 47.52 27 72 C19.86399881 72 13.7078449 71.89003986 7.91015625 67.37109375 C0.22938946 59.33308199 -0.44829361 49.54010193 -0.29296875 38.8671875 C-0.28872391 37.74933868 -0.28447906 36.63148987 -0.28010559 35.47976685 C-0.26344759 31.94458906 -0.22581916 28.41000257 -0.1875 24.875 C-0.17243654 22.46354996 -0.15875106 20.05209089 -0.14648438 17.640625 C-0.11615108 11.76001115 -0.0574034 5.88065958 0 0 Z " fill="#000000" transform="translate(176,280)"/>
<path d="M0 0 C8.58 0 17.16 0 26 0 C26.06303135 7.30463282 26.1231214 14.60827219 26.15525055 21.91294098 C26.17104716 25.31504535 26.19213231 28.71692297 26.22631836 32.11889648 C26.26535614 36.02845459 26.27974753 39.93792232 26.29296875 43.84765625 C26.30845261 45.05833267 26.32393646 46.26900909 26.33988953 47.51637268 C26.34145438 55.39375208 25.99263556 60.7883911 20.4375 66.75 C14.29607019 71.37898814 7.47594715 72 0 72 C0 48.24 0 24.48 0 0 Z " fill="#000000" transform="translate(206,280)"/>
<path d="M0 0 C8.25 0 16.5 0 25 0 C26.67358951 1.67358951 26.1531261 3.72100082 26.17700195 6.01953125 C26.18983719 7.09154785 26.20267242 8.16356445 26.21589661 9.26806641 C26.22328354 10.43772949 26.23067047 11.60739258 26.23828125 12.8125 C26.25038887 14.60953369 26.25038887 14.60953369 26.26274109 16.44287109 C26.27660756 18.98842919 26.28731817 21.53400608 26.29516602 24.07958984 C26.31230444 27.95576942 26.3561604 31.83107986 26.40039062 35.70703125 C26.41052361 38.17968122 26.41903782 40.65233846 26.42578125 43.125 C26.44328934 44.27846924 26.46079742 45.43193848 26.47883606 46.62036133 C26.46078618 53.38996645 25.90931258 59.2804951 22 65 C15.4053297 70.65592664 8.60119446 72 0 72 C0 48.24 0 24.48 0 0 Z " fill="#000000" transform="translate(313,160)"/>
<path d="M0 0 C0.99 0 1.98 0 3 0 C3.27972656 1.00933594 3.55945313 2.01867187 3.84765625 3.05859375 C4.03755127 3.74276367 4.22744629 4.42693359 4.4230957 5.13183594 C4.85615455 6.6934273 5.2882549 8.25528474 5.71948242 9.81738281 C7.08098752 14.73716279 8.47179129 19.64720594 9.890625 24.55078125 C10.20894287 25.66074463 10.52726074 26.77070801 10.85522461 27.91430664 C11.48514909 30.10932276 12.12121753 32.30258654 12.76391602 34.49389648 C13.05451904 35.51169189 13.34512207 36.5294873 13.64453125 37.578125 C13.90596924 38.47950195 14.16740723 39.38087891 14.43676758 40.30957031 C15 43 15 43 15 49 C6.42 49 -2.16 49 -11 49 C-9.73567173 39.87154992 -7.90630271 31.14023136 -5.5 22.25 C-4.8839662 19.94309518 -4.26935234 17.63581064 -3.65625 15.328125 C-3.37007813 14.25111328 -3.08390625 13.17410156 -2.7890625 12.06445312 C-1.75835805 8.06154399 -0.8601518 4.04271347 0 0 Z " fill="#000000" transform="translate(70,183)"/>
<path d="M0 0 C0.66 0 1.32 0 2 0 C2.30292969 1.17433594 2.60585937 2.34867187 2.91796875 3.55859375 C3.34045578 5.18507523 3.76369039 6.81136264 4.1875 8.4375 C4.52261597 9.72346069 4.52261597 9.72346069 4.86450195 11.03540039 C6.52851229 17.35794125 8.31893283 23.63199971 10.29956055 29.86303711 C12.16600976 35.94820479 12.92092721 41.52556325 14 48 C5.42 48 -3.16 48 -12 48 C-10.87651218 39.01209741 -10.87651218 39.01209741 -9.6953125 34.8984375 C-9.44297852 34.00237793 -9.19064453 33.10631836 -8.93066406 32.18310547 C-8.66479492 31.25643066 -8.39892578 30.32975586 -8.125 29.375 C-6.00785897 21.84417077 -4.10662511 14.36679064 -2.640625 6.6796875 C-2.04355591 4.18219117 -1.25726053 2.22684281 0 0 Z " fill="#000000" transform="translate(172,66)"/>
</svg>
