<svg xmlns="http://www.w3.org/2000/svg" width="1em" height="1em" viewBox="0 0 16 16"><g fill="none"><path fill="url(#SVGWyYOXbTr)" d="M8 1.517A1.5 1.5 0 0 0 5.91.137L1.514 2.022A2.5 2.5 0 0 0 0 4.319v4.164a1.5 1.5 0 0 0 2.09 1.38l5-2.144A1.5 1.5 0 0 0 8 6.341z"/><path fill="url(#SVG8syuhebB)" d="M11 3.517a1.5 1.5 0 0 0-2.09-1.38L4.514 4.022A2.5 2.5 0 0 0 3 6.319v4.164a1.5 1.5 0 0 0 2.09 1.38l5-2.144A1.5 1.5 0 0 0 11 8.341z"/><path fill="url(#SVG5P084dXt)" d="M14 5.517a1.5 1.5 0 0 0-2.09-1.38L7.514 6.022A2.5 2.5 0 0 0 6 8.319v4.164a1.5 1.5 0 0 0 2.09 1.38l5-2.144a1.5 1.5 0 0 0 .91-1.378z"/><path fill="url(#SVGuIQ2RSsq)" d="M16 13.5c0 1.245-1 2.5-3.5 2.5S9 14.75 9 13.5a1.5 1.5 0 0 1 1.5-1.5h4a1.5 1.5 0 0 1 1.5 1.5"/><path fill="url(#SVGvh1e15PM)" d="M14.5 9a2 2 0 1 1-4 0a2 2 0 0 1 4 0"/><defs><linearGradient id="SVGWyYOXbTr" x1=".286" x2="7.059" y1="1.884" y2="7.531" gradientUnits="userSpaceOnUse"><stop stop-color="#0078D4"/><stop offset="1" stop-color="#1B44B1"/></linearGradient><linearGradient id="SVG8syuhebB" x1="3.286" x2="10.059" y1="3.884" y2="9.531" gradientUnits="userSpaceOnUse"><stop stop-color="#0FAFFF"/><stop offset="1" stop-color="#2764E7"/></linearGradient><linearGradient id="SVG5P084dXt" x1="6.286" x2="13.059" y1="5.884" y2="11.531" gradientUnits="userSpaceOnUse"><stop stop-color="#6CE0FF"/><stop offset="1" stop-color="#58AAFE"/></linearGradient><linearGradient id="SVGuIQ2RSsq" x1="10.665" x2="12.102" y1="12.532" y2="16.549" gradientUnits="userSpaceOnUse"><stop offset=".125" stop-color="#9C6CFE"/><stop offset="1" stop-color="#7A41DC"/></linearGradient><linearGradient id="SVGvh1e15PM" x1="11.451" x2="13.49" y1="7.532" y2="10.787" gradientUnits="userSpaceOnUse"><stop offset=".125" stop-color="#9C6CFE"/><stop offset="1" stop-color="#7A41DC"/></linearGradient></defs></g></svg>