<svg xmlns="http://www.w3.org/2000/svg" width="1em" height="1em" viewBox="0 0 24 24"><g fill="none"><path fill="#fff" d="M15.35 7.696h3.825A3.825 3.825 0 0 1 23 11.522v5.738a.956.956 0 0 1-.956.956h-6.695z"/><path fill="#66e1ff" d="M23 11.522v.956h-3.825a.9.9 0 0 1-.708-.296a.94.94 0 0 1-.249-.717V7.696h.956A3.826 3.826 0 0 1 23 11.522"/><path fill="#c2f3ff" d="M19.174 7.696h-.956v3.769a.96.96 0 0 0 .09.457l3.316-3.316a3.8 3.8 0 0 0-2.45-.91"/><path fill="#ff808c" d="M1.96 3.87h12.433a.956.956 0 0 1 .956.957V17.26H1.003V4.827a.956.956 0 0 1 .957-.956"/><path fill="#e3e3e3" d="M15.351 14.87H1.006v2.39H15.35z"/><path fill="#ffbfc5" d="M14.393 3.87H1.96a.956.956 0 0 0-.957.957v2.391a.956.956 0 0 1 .957-.956h12.433a.956.956 0 0 1 .956.956v-2.39a.957.957 0 0 0-.956-.957"/><path fill="#ffbc44" d="M10.568 6.74H4.83v3.825h5.738zm-3.83 3.848H1v4.281h5.738z"/><path fill="#ffbc44" d="M12.448 10.588H6.71v4.281h5.738z"/><path fill="gray" d="M15.827 20.13a2.391 2.391 0 1 0 0-4.783a2.391 2.391 0 0 0 0 4.782m-10.521.001a2.391 2.391 0 1 0 0-4.783a2.391 2.391 0 0 0 0 4.782"/><path stroke="#191919" stroke-linecap="round" stroke-linejoin="round" d="M11.524 17.26H9.61m10.521.956h1.913A.956.956 0 0 0 23 17.26v-5.738a3.84 3.84 0 0 0-3.825-3.826h-3.826M23 16.304h-1.435M9.61 13.435v-2.87h2.87v4.304M1.003 10.566h5.739m-2.869 0v2.869m.956-6.695h5.738v3.825H4.829zm2.869 0v1.913m-.956 1.913v3.347"/><path stroke="#191919" stroke-linecap="round" stroke-linejoin="round" d="M15.349 13.435V4.827a.957.957 0 0 0-.956-.956H1.96a.956.956 0 0 0-.957.956V17.26M23 12.478h-3.826a.94.94 0 0 1-.956-1.013V7.696M15.827 20.13a2.391 2.391 0 1 0 0-4.783a2.391 2.391 0 0 0 0 4.782"/><path stroke="#191919" stroke-linecap="round" stroke-linejoin="round" d="M5.306 20.13a2.391 2.391 0 1 0 0-4.783a2.391 2.391 0 0 0 0 4.782"/></g></svg>